<svg width="48" height="48" viewBox="0 0 48 48" fill="none" xmlns="http://www.w3.org/2000/svg">
<path fill-rule="evenodd" clip-rule="evenodd" d="M6.928 41.072C9.86 44 14.572 44 24 44C33.428 44 38.142 44 41.07 41.07C44 38.144 44 33.428 44 24C44 14.572 44 9.858 41.07 6.928C38.144 4 33.428 4 24 4C14.572 4 9.858 4 6.928 6.928C4 9.86 4 14.572 4 24C4 33.428 4 38.144 6.928 41.072ZM19 17.5C17.7144 17.5 16.4577 17.8812 15.3888 18.5954C14.3199 19.3097 13.4868 20.3248 12.9948 21.5126C12.5028 22.7002 12.3741 24.0072 12.6249 25.268C12.8757 26.529 13.4948 27.6872 14.4038 28.5962C15.3128 29.5052 16.471 30.1244 17.7319 30.3752C18.9928 30.626 20.2998 30.4972 21.4874 30.0052C22.6752 29.5132 23.6904 28.6802 24.4046 27.6112C25.1188 26.5422 25.5 25.2856 25.5 24C25.5 23.6022 25.658 23.2206 25.9394 22.9394C26.2206 22.658 26.6022 22.5 27 22.5C27.3978 22.5 27.7794 22.658 28.0606 22.9394C28.342 23.2206 28.5 23.6022 28.5 24C28.5 25.879 27.9428 27.7156 26.899 29.278C25.855 30.8402 24.3714 32.0578 22.6354 32.7768C20.8996 33.4958 18.9895 33.684 17.1466 33.3174C15.3038 32.9508 13.6111 32.0462 12.2825 30.7176C10.9539 29.389 10.0491 27.6962 9.68254 25.8534C9.31598 24.0106 9.50412 22.1004 10.2231 20.3646C10.9422 18.6286 12.1598 17.1449 13.7221 16.101C15.2844 15.0572 17.1211 14.5 19 14.5C19.3978 14.5 19.7794 14.658 20.0606 14.9393C20.342 15.2206 20.5 15.6022 20.5 16C20.5 16.3978 20.342 16.7794 20.0606 17.0607C19.7794 17.342 19.3978 17.5 19 17.5ZM35.5 24C35.5 25.724 34.8152 27.3772 33.5962 28.5962C32.3772 29.8152 30.724 30.5 29 30.5C28.6022 30.5 28.2206 30.658 27.9394 30.9394C27.658 31.2206 27.5 31.6022 27.5 32C27.5 32.3978 27.658 32.7794 27.9394 33.0606C28.2206 33.342 28.6022 33.5 29 33.5C30.879 33.5 32.7156 32.9428 34.278 31.899C35.8402 30.855 37.0578 29.3714 37.7768 27.6354C38.4958 25.8996 38.684 23.9894 38.3174 22.1466C37.9508 20.3038 37.0462 18.6111 35.7176 17.2825C34.389 15.9539 32.6962 15.0491 30.8534 14.6825C29.0106 14.316 27.1004 14.5041 25.3646 15.2231C23.6286 15.9422 22.145 17.1598 21.101 18.7221C20.0572 20.2844 19.5 22.121 19.5 24C19.5 24.3978 19.658 24.7794 19.9393 25.0606C20.2206 25.342 20.6022 25.5 21 25.5C21.3978 25.5 21.7794 25.342 22.0606 25.0606C22.342 24.7794 22.5 24.3978 22.5 24C22.5 22.276 23.1848 20.6228 24.4038 19.4038C25.6228 18.1848 27.276 17.5 29 17.5C30.724 17.5 32.3772 18.1848 33.5962 19.4038C34.8152 20.6228 35.5 22.276 35.5 24Z" fill="#5E3CF4"/>
</svg>
