<svg width="24" height="24" viewBox="0 0 24 24" fill="none" xmlns="http://www.w3.org/2000/svg">
<path fill-rule="evenodd" clip-rule="evenodd" d="M3.464 20.536C4.93 22 7.286 22 12 22C16.714 22 19.071 22 20.535 20.535C22 19.072 22 16.714 22 12C22 7.286 22 4.929 20.535 3.464C19.072 2 16.714 2 12 2C7.286 2 4.929 2 3.464 3.464C2 4.93 2 7.286 2 12C2 16.714 2 19.072 3.464 20.536ZM9.5 8.75C8.85721 8.75 8.22886 8.94061 7.6944 9.29772C7.15994 9.65484 6.74338 10.1624 6.49739 10.7563C6.25141 11.3501 6.18705 12.0036 6.31245 12.634C6.43785 13.2645 6.74738 13.8436 7.2019 14.2981C7.65642 14.7526 8.23552 15.0622 8.86596 15.1876C9.49639 15.313 10.1499 15.2486 10.7437 15.0026C11.3376 14.7566 11.8452 14.3401 12.2023 13.8056C12.5594 13.2711 12.75 12.6428 12.75 12C12.75 11.8011 12.829 11.6103 12.9697 11.4697C13.1103 11.329 13.3011 11.25 13.5 11.25C13.6989 11.25 13.8897 11.329 14.0303 11.4697C14.171 11.6103 14.25 11.8011 14.25 12C14.25 12.9395 13.9714 13.8578 13.4495 14.639C12.9275 15.4201 12.1857 16.0289 11.3177 16.3884C10.4498 16.7479 9.49473 16.842 8.57332 16.6587C7.65191 16.4754 6.80554 16.0231 6.14124 15.3588C5.47694 14.6945 5.02455 13.8481 4.84127 12.9267C4.65799 12.0053 4.75206 11.0502 5.11157 10.1823C5.47109 9.3143 6.07991 8.57246 6.86104 8.05052C7.64218 7.52858 8.56054 7.25 9.5 7.25C9.69891 7.25 9.88968 7.32902 10.0303 7.46967C10.171 7.61032 10.25 7.80109 10.25 8C10.25 8.19891 10.171 8.38968 10.0303 8.53033C9.88968 8.67098 9.69891 8.75 9.5 8.75ZM17.75 12C17.75 12.862 17.4076 13.6886 16.7981 14.2981C16.1886 14.9076 15.362 15.25 14.5 15.25C14.3011 15.25 14.1103 15.329 13.9697 15.4697C13.829 15.6103 13.75 15.8011 13.75 16C13.75 16.1989 13.829 16.3897 13.9697 16.5303C14.1103 16.671 14.3011 16.75 14.5 16.75C15.4395 16.75 16.3578 16.4714 17.139 15.9495C17.9201 15.4275 18.5289 14.6857 18.8884 13.8177C19.2479 12.9498 19.342 11.9947 19.1587 11.0733C18.9754 10.1519 18.5231 9.30554 17.8588 8.64124C17.1945 7.97694 16.3481 7.52455 15.4267 7.34127C14.5053 7.15799 13.5502 7.25206 12.6823 7.61157C11.8143 7.97109 11.0725 8.57991 10.5505 9.36104C10.0286 10.1422 9.75 11.0605 9.75 12C9.75 12.1989 9.82902 12.3897 9.96967 12.5303C10.1103 12.671 10.3011 12.75 10.5 12.75C10.6989 12.75 10.8897 12.671 11.0303 12.5303C11.171 12.3897 11.25 12.1989 11.25 12C11.25 11.138 11.5924 10.3114 12.2019 9.7019C12.8114 9.09241 13.638 8.75 14.5 8.75C15.362 8.75 16.1886 9.09241 16.7981 9.7019C17.4076 10.3114 17.75 11.138 17.75 12Z" fill="#5E3CF4"/>
</svg>
