<svg width="260" height="534" viewBox="0 0 260 534" fill="none" xmlns="http://www.w3.org/2000/svg"><rect x="1" y="1" width="258" height="532" rx="43" fill="white" stroke="#BABABA" stroke-width="2"/><path d="M128.981 31.9998L129 32.0002L129.019 31.9998L170.622 31.1998C176.941 31.0782 182 25.921 182 19.601C182 14.2985 186.298 10 191.601 10H215.5C234.002 10 249 24.9985 249 43.5V487C249 507.987 231.987 525 211 525H48C27.0132 525 10 507.987 10 487V43.25C10 24.8865 24.8865 10 43.25 10H66.8981C72.2011 10 76.5 14.2989 76.5 19.6019C76.5 25.9217 81.5581 31.079 87.8767 31.2017L128.981 31.9998Z" stroke="#BABABA" stroke-width="2"/></svg>
